<?xml version="1.0" encoding="UTF-8"?>
<!DOCTYPE svg PUBLIC "-//W3C//DTD SVG 1.1//EN" "http://www.w3.org/Graphics/SVG/1.1/DTD/svg11.dtd">
<!-- Creator: CorelDRAW -->
<svg xmlns="http://www.w3.org/2000/svg" xml:space="preserve" width="1.70666in" height="1.70666in" version="1.1" style="shape-rendering:geometricPrecision; text-rendering:geometricPrecision; image-rendering:optimizeQuality; fill-rule:evenodd; clip-rule:evenodd"
viewBox="0 0 1707 1707"
 xmlns:xlink="http://www.w3.org/1999/xlink">
 <defs>
  <style type="text/css">
   <![CDATA[
    .fil3 {fill:none}
    .fil2 {fill:#27313B}
    .fil0 {fill:#354350}
    .fil1 {fill:#CEE2F2}
    .fil4 {fill:white;fill-rule:nonzero}
   ]]>
  </style>
 </defs>
 <g id="Layer_x0020_1">
  <metadata id="CorelCorpID_0Corel-Layer"/>
  <path class="fil0" d="M1386 1706l-1065 0c-32,0 -58,-26 -58,-58l0 -1589c0,-32 26,-58 58,-58l1065 0c32,0 58,26 58,58l0 1589c0,32 -26,58 -58,58z"/>
  <path class="fil1" d="M1322 402l-938 0c-12,0 -23,-11 -23,-24l0 -245c0,-13 11,-24 23,-24l938 0c13,0 24,11 24,24l0 245c0,13 -11,24 -24,24z"/>
  <path class="fil2" d="M1315 809l-235 0c-13,0 -24,-10 -24,-23l0 -236c0,-13 11,-23 24,-23l235 0c12,0 23,10 23,23l0 236c0,13 -11,23 -23,23z"/>
  <path class="fil2" d="M967 809l-235 0c-13,0 -23,-10 -23,-23l0 -236c0,-13 10,-23 23,-23l235 0c13,0 23,10 23,23l0 236c0,13 -10,23 -23,23z"/>
  <path class="fil2" d="M619 809l-235 0c-12,0 -23,-10 -23,-23l0 -236c0,-13 11,-23 23,-23l235 0c13,0 24,10 24,23l0 236c0,13 -11,23 -24,23z"/>
  <path class="fil2" d="M1315 1597l-235 0c-13,0 -24,-10 -24,-23l0 -630c0,-13 11,-23 24,-23l235 0c12,0 23,10 23,23l0 630c0,13 -11,23 -23,23z"/>
  <path class="fil2" d="M967 1203l-235 0c-13,0 -23,-10 -23,-23l0 -236c0,-13 10,-23 23,-23l235 0c13,0 23,10 23,23l0 236c0,13 -10,23 -23,23z"/>
  <path class="fil2" d="M619 1203l-235 0c-12,0 -23,-10 -23,-23l0 -236c0,-13 11,-23 23,-23l235 0c13,0 24,10 24,23l0 236c0,13 -11,23 -24,23z"/>
  <path class="fil2" d="M967 1597l-235 0c-13,0 -23,-10 -23,-23l0 -236c0,-13 10,-23 23,-23l235 0c13,0 23,10 23,23l0 236c0,13 -10,23 -23,23z"/>
  <path class="fil2" d="M619 1597l-235 0c-12,0 -23,-10 -23,-23l0 -236c0,-13 11,-23 23,-23l235 0c13,0 24,10 24,23l0 236c0,13 -11,23 -24,23z"/>
  <path class="fil3" d="M1201 1117l0 165m82 -83l-165 0"/>
  <path class="fil4" d="M1221 1117c0,-11 -9,-20 -20,-20 -11,0 -20,9 -20,20l0 62 -63 0c-11,0 -20,9 -20,20 0,11 9,20 20,20l63 0 0 63c0,11 9,20 20,20 11,0 20,-9 20,-20l0 -63 62 0c11,0 20,-9 20,-20 0,-11 -9,-20 -20,-20l-62 0 0 -62z"/>
 </g>
</svg>
